<svg width="32" height="32" viewBox="0 0 32 32" fill="none" xmlns="http://www.w3.org/2000/svg">
  <rect width="32" height="32" rx="6" fill="#3B82F6"/>
  <path d="M8 12V20C8 20.5523 8.44772 21 9 21H12V19H10V13H12V11H9C8.44772 11 8 11.4477 8 12Z" fill="white"/>
  <path d="M20 11H23C23.5523 11 24 11.4477 24 12V20C24 20.5523 23.5523 21 23 21H20V19H22V13H20V11Z" fill="white"/>
  <rect x="13" y="11" width="6" height="2" fill="white"/>
  <rect x="13" y="15" width="6" height="2" fill="white"/>
  <rect x="13" y="19" width="6" height="2" fill="white"/>
</svg>